<svg id="visual" viewBox="0 0 100 100" width="100" height="100" xmlns="http://www.w3.org/2000/svg" xmlns:xlink="http://www.w3.org/1999/xlink" version="1.1"><g transform="translate(60.70483815731438 50.05174227630381)"><path d="M26.1 -37.4C30.2 -32.9 27.5 -20.5 25.5 -11.8C23.5 -3.1 22.2 1.9 20.4 6.4C18.7 11 16.4 15.2 12.9 16.6C9.4 17.9 4.7 16.5 -3.8 21.7C-12.2 26.9 -24.5 38.7 -34 39.3C-43.5 39.9 -50.3 29.2 -49.6 19C-48.8 8.9 -40.6 -0.8 -31.8 -5C-23.1 -9.1 -13.8 -7.7 -8.5 -11.8C-3.1 -15.9 -1.5 -25.4 4.7 -31.9C11 -38.4 21.9 -41.9 26.1 -37.4" fill="none" stroke="#6D28D9" stroke-width="6"></path></g></svg>